<?xml version="1.0" encoding="UTF-8" standalone="no"?>
<!-- Created with Inkscape (http://www.inkscape.org/) -->

<svg
   xmlns:dc="http://purl.org/dc/elements/1.1/"
   xmlns:cc="http://creativecommons.org/ns#"
   xmlns:rdf="http://www.w3.org/1999/02/22-rdf-syntax-ns#"
   xmlns:svg="http://www.w3.org/2000/svg"
   xmlns="http://www.w3.org/2000/svg"
   xmlns:sodipodi="http://sodipodi.sourceforge.net/DTD/sodipodi-0.dtd"
   xmlns:inkscape="http://www.inkscape.org/namespaces/inkscape"
   width="640"
   height="480"
   viewBox="0 0 640.00001 480.00001"
   id="svg2"
   version="1.1"
   inkscape:version="0.91 r13725"
   sodipodi:docname="title.svg"
   inkscape:export-filename="/home/alan/source/ld32/content/title.png"
   inkscape:export-xdpi="90"
   inkscape:export-ydpi="90">
  <defs
     id="defs4" />
  <sodipodi:namedview
     id="base"
     pagecolor="#ffffff"
     bordercolor="#666666"
     borderopacity="1.0"
     inkscape:pageopacity="0"
     inkscape:pageshadow="2"
     inkscape:zoom="1"
     inkscape:cx="41.786452"
     inkscape:cy="216.9339"
     inkscape:document-units="px"
     inkscape:current-layer="layer1"
     showgrid="true"
     units="px"
     inkscape:window-width="1906"
     inkscape:window-height="1050"
     inkscape:window-x="6"
     inkscape:window-y="22"
     inkscape:window-maximized="0"
     inkscape:snap-grids="true">
    <inkscape:grid
       type="xygrid"
       id="grid4477"
       spacingx="32"
       spacingy="32.000001" />
  </sodipodi:namedview>
  <metadata
     id="metadata7">
    <rdf:RDF>
      <cc:Work
         rdf:about="">
        <dc:format>image/svg+xml</dc:format>
        <dc:type
           rdf:resource="http://purl.org/dc/dcmitype/StillImage" />
        <dc:title></dc:title>
      </cc:Work>
    </rdf:RDF>
  </metadata>
  <g
     inkscape:label="Layer 1"
     inkscape:groupmode="layer"
     id="layer1"
     style="display:inline"
     transform="translate(0,-572.36216)">
    <g
       id="g4292"
       transform="translate(-0.01700623,-60.305087)">
      <path
         sodipodi:nodetypes="aaaaaaaaaaaaaaaaaaaaa"
         inkscape:connector-curvature="0"
         id="path4138"
         d="m 283.25838,666.22587 c -30.63574,-0.97282 -65.15212,-24.07871 -91.55962,-8.50739 -20.30498,11.97295 -25.27448,41.41965 -28.39349,64.79618 -2.73969,20.53345 3.25941,41.60869 9.1447,61.46958 6.70108,22.61392 21.77389,42.03737 29.39808,64.35658 8.71508,25.51268 13.89689,52.17802 18.42807,78.75607 3.01117,17.66234 -9.20049,43.63641 5.78711,53.43972 7.87104,5.14839 21.15562,-1.03302 26.90831,-8.47648 13.73971,-17.7779 -1.62327,-45.43536 3.41942,-67.33574 4.84052,-21.0223 7.70059,-47.11607 25.31369,-59.55622 22.82251,-16.11957 59.15649,-18.51861 83.65071,-5.07862 19.99213,10.9697 26.52842,38.02257 33.2175,59.83445 4.85937,15.84554 -4.68729,35.6651 4.38849,49.53035 6.67625,10.19943 21.09407,22.77457 32.08825,17.51857 19.54449,-9.34369 10.00282,-42.36131 11.6322,-63.97499 1.9653,-26.06973 -6.41643,-52.57978 -2.30313,-78.39754 4.57626,-28.72354 25.87606,-53.24543 29.5387,-82.09988 3.21655,-25.34007 8.09139,-55.77561 -7.10369,-76.30061 -12.39551,-16.74342 -37.05815,-22.01398 -57.8149,-23.67906 -33.58055,-2.6938 -65.0287,18.57783 -98.43783,22.90858 -9.02928,1.17045 -18.20243,1.08542 -27.30257,0.79645 z"
         style="fill:#ffffff;fill-rule:evenodd;stroke:#afc6e9;stroke-width:10;stroke-linecap:butt;stroke-linejoin:miter;stroke-miterlimit:4;stroke-dasharray:none;stroke-opacity:1" />
      <path
         sodipodi:nodetypes="cc"
         inkscape:connector-curvature="0"
         id="path4142"
         d="m 190.83508,682.74637 c 6.64812,12.55498 4.55214,22.61328 6.928,32.7143"
         style="display:inline;fill:none;fill-rule:evenodd;stroke:#afc6e9;stroke-width:5;stroke-linecap:butt;stroke-linejoin:miter;stroke-miterlimit:4;stroke-dasharray:none;stroke-opacity:1" />
      <path
         inkscape:connector-curvature="0"
         id="path4144"
         d="m 184.62373,683.00362 c 12.73054,-0.30249 36.60163,-0.66987 35.37519,17.32907 0.76983,16.96155 -21.40193,13.91543 -32.34304,16.04731"
         style="display:inline;fill:none;fill-rule:evenodd;stroke:#afc6e9;stroke-width:5;stroke-linecap:butt;stroke-linejoin:miter;stroke-miterlimit:4;stroke-dasharray:none;stroke-opacity:1" />
      <path
         inkscape:connector-curvature="0"
         id="path4146"
         d="m 230.10611,685.02643 c 0.99933,9.96173 4.40621,19.78978 5.0536,29.33076"
         style="display:inline;fill:none;fill-rule:evenodd;stroke:#afc6e9;stroke-width:5;stroke-linecap:butt;stroke-linejoin:miter;stroke-miterlimit:4;stroke-dasharray:none;stroke-opacity:1" />
      <path
         sodipodi:nodetypes="cscc"
         inkscape:connector-curvature="0"
         id="path4148"
         d="m 217.97747,685.02643 c 10.31181,-2.44226 46.22295,4.11253 27.46638,12.7953 -15.41806,7.13731 -14.42167,4.24745 -3.59457,5.24591 7.13672,2.82731 18.94055,4.41332 24.64274,8.25533"
         style="display:inline;fill:none;fill-rule:evenodd;stroke:#afc6e9;stroke-width:5;stroke-linecap:butt;stroke-linejoin:miter;stroke-miterlimit:4;stroke-dasharray:none;stroke-opacity:1" />
      <path
         sodipodi:nodetypes="ccc"
         inkscape:connector-curvature="0"
         id="path4150"
         d="m 206.58399,732.01098 c 9.66493,13.47744 11.30145,28.86273 15.24213,44.45608 0.32339,4.68957 0.38422,11.6636 2.50973,14.44418"
         style="display:inline;fill:none;fill-rule:evenodd;stroke:#afc6e9;stroke-width:5;stroke-linecap:butt;stroke-linejoin:miter;stroke-miterlimit:4;stroke-dasharray:none;stroke-opacity:1" />
      <path
         inkscape:connector-curvature="0"
         id="path4152"
         d="m 195.74164,736.60811 c 10.5112,-6.83021 24.60498,-6.41481 36.31344,-4.28119 14.3313,1.31985 28.17823,14.9568 25.72769,29.73585 -6.15869,14.35244 -17.8707,24.22223 -32.87172,28.61175 -5.37913,0.66027 -9.49599,3.93476 -15.01934,3.5837"
         style="display:inline;fill:none;fill-rule:evenodd;stroke:#afc6e9;stroke-width:5;stroke-linecap:butt;stroke-linejoin:miter;stroke-miterlimit:4;stroke-dasharray:none;stroke-opacity:1" />
      <path
         sodipodi:nodetypes="ccc"
         inkscape:connector-curvature="0"
         id="path4154"
         d="m 263.45986,784.14417 c -1.86897,-12.97032 4.89692,-31.6621 15.72166,-36.5447 9.58651,8.26283 23.51984,19.84455 26.01271,33.70504"
         style="display:inline;fill:none;fill-rule:evenodd;stroke:#afc6e9;stroke-width:5;stroke-linecap:butt;stroke-linejoin:miter;stroke-miterlimit:4;stroke-dasharray:none;stroke-opacity:1" />
      <path
         sodipodi:nodetypes="cc"
         inkscape:connector-curvature="0"
         id="path4156"
         d="m 264.78313,768.10882 c 12.15908,0.50774 22.25693,-0.66469 34.0519,-1.15854"
         style="display:inline;fill:none;fill-rule:evenodd;stroke:#afc6e9;stroke-width:5;stroke-linecap:butt;stroke-linejoin:miter;stroke-miterlimit:4;stroke-dasharray:none;stroke-opacity:1" />
      <path
         sodipodi:nodetypes="cc"
         inkscape:connector-curvature="0"
         id="path4158"
         d="m 310.67132,744.19873 c -0.28822,13.25369 13.30574,26.57681 8.37812,38.93404"
         style="display:inline;fill:none;fill-rule:evenodd;stroke:#afc6e9;stroke-width:5;stroke-linecap:butt;stroke-linejoin:miter;stroke-miterlimit:4;stroke-dasharray:none;stroke-opacity:1" />
      <path
         sodipodi:nodetypes="cccc"
         inkscape:connector-curvature="0"
         id="path4160"
         d="m 298.83505,748.74498 c 11.23083,-7.02053 35.57361,-13.65429 35.45572,3.47224 -3.24747,6.01546 -26.37663,9.7303 -11.15883,15.29436 4.08703,3.1683 19.32345,6.47226 20.17477,9.55275"
         style="display:inline;fill:none;fill-rule:evenodd;stroke:#afc6e9;stroke-width:5;stroke-linecap:butt;stroke-linejoin:miter;stroke-miterlimit:4;stroke-dasharray:none;stroke-opacity:1" />
      <path
         inkscape:connector-curvature="0"
         id="path4162"
         d="m 349.37103,743.68795 c 10.94113,-0.47129 22.22021,-3.50345 33.35375,-4.04562"
         style="display:inline;fill:none;fill-rule:evenodd;stroke:#afc6e9;stroke-width:5;stroke-linecap:butt;stroke-linejoin:miter;stroke-miterlimit:4;stroke-dasharray:none;stroke-opacity:1" />
      <path
         sodipodi:nodetypes="cc"
         inkscape:connector-curvature="0"
         id="path4164"
         d="m 361.38962,742.32676 c 7.12841,8.97698 0.14094,28.95239 6.76249,35.03183"
         style="display:inline;fill:none;fill-rule:evenodd;stroke:#afc6e9;stroke-width:5;stroke-linecap:butt;stroke-linejoin:miter;stroke-miterlimit:4;stroke-dasharray:none;stroke-opacity:1" />
      <path
         inkscape:connector-curvature="0"
         id="path4166"
         d="m 346.33887,780.09855 c 12.973,-3.02842 26.84509,-2.01895 39.41807,-5.05703"
         style="display:inline;fill:none;fill-rule:evenodd;stroke:#afc6e9;stroke-width:5;stroke-linecap:butt;stroke-linejoin:miter;stroke-miterlimit:4;stroke-dasharray:none;stroke-opacity:1" />
      <path
         sodipodi:nodetypes="aaaa"
         inkscape:connector-curvature="0"
         id="path4168"
         d="m 405.58814,771.24979 c 8.96867,7.68346 30.91527,-2.27332 32.55036,-13.97394 1.4274,-10.21442 -14.19349,-22.76146 -23.98174,-19.53118 -10.94085,3.61065 -17.32005,26.00779 -8.56862,33.50512 z"
         style="display:inline;fill:none;fill-rule:evenodd;stroke:#afc6e9;stroke-width:5;stroke-linecap:butt;stroke-linejoin:miter;stroke-miterlimit:4;stroke-dasharray:none;stroke-opacity:1" />
      <path
         inkscape:connector-curvature="0"
         id="path4170"
         d="m 353.41391,795.26963 c 2.44441,6.48625 5.45007,13.53982 8.08576,19.21671"
         style="display:inline;fill:none;fill-rule:evenodd;stroke:#afc6e9;stroke-width:5;stroke-linecap:butt;stroke-linejoin:miter;stroke-miterlimit:4;stroke-dasharray:none;stroke-opacity:1" />
      <path
         sodipodi:nodetypes="ccc"
         inkscape:connector-curvature="0"
         id="path4172"
         d="m 337.24239,795.26963 c 11.06871,-0.621 40.51416,-3.9695 35.96831,12.3887 -6.95323,5.96888 -16.6182,6.57364 -24.19342,8.64854"
         style="display:inline;fill:none;fill-rule:evenodd;stroke:#afc6e9;stroke-width:5;stroke-linecap:butt;stroke-linejoin:miter;stroke-miterlimit:4;stroke-dasharray:none;stroke-opacity:1" />
      <path
         sodipodi:nodetypes="cc"
         inkscape:connector-curvature="0"
         id="path4174"
         d="m 378.0502,795.24435 c 5.6812,2.41788 4.10569,12.42958 9.90505,16.48591"
         style="display:inline;fill:none;fill-rule:evenodd;stroke:#afc6e9;stroke-width:5;stroke-linecap:butt;stroke-linejoin:miter;stroke-miterlimit:4;stroke-dasharray:none;stroke-opacity:1" />
      <path
         inkscape:connector-curvature="0"
         id="path4176"
         d="m 372.61758,796.28104 c 9.48778,-2.79516 34.57455,1.45956 21.38714,14.02884 -4.243,1.77512 -8.90493,1.95247 -13.30138,3.16505"
         style="display:inline;fill:none;fill-rule:evenodd;stroke:#afc6e9;stroke-width:5;stroke-linecap:butt;stroke-linejoin:miter;stroke-miterlimit:4;stroke-dasharray:none;stroke-opacity:1" />
      <path
         sodipodi:nodetypes="cccc"
         inkscape:connector-curvature="0"
         id="path4178"
         d="m 416.07852,790.21261 c -10.75266,0.84053 -9.06749,9.24995 0.67039,9.62134 12.89395,4.05033 12.09159,18.54563 -0.46671,17.37097 -4.83026,-1.32631 -9.31479,-1.70578 -10.56355,-1.3279"
         style="display:inline;fill:none;fill-rule:evenodd;stroke:#afc6e9;stroke-width:5;stroke-linecap:butt;stroke-linejoin:miter;stroke-miterlimit:4;stroke-dasharray:none;stroke-opacity:1" />
    </g>
  </g>
</svg>
